# xmcd
#
# Track frame offsets:
#	150
#	30620
#	52418
#	71891
#	153080
#	182028
#	208710
#	237073
#	306828
#
# Disc length: 4628 seconds
#
# Revision: 1
# Processed by: cddbd v1.5.2PL0 Copyright (c) Steve Scherf et al.
# Submitted via: audiograbber 1.83.01
#
DISCID=7c121209
DTITLE=John Mayall and The Blues Breakers And Friends - 70th Birthday Concert CD2
DYEAR=1900
DGENRE=
TTITLE0=Please Mr Lofton
TTITLE1=Hideaway
TTITLE2=All Your Love
TTITLE3=Have You Heard
TTITLE4=hoochie coochie man
TTITLE5=I'm Tore Down
TTITLE6=it ain't right 
TTITLE7=California
TTITLE8=Talk To Your Daughter
EXTD=
EXTT0=
EXTT1=
EXTT2=
EXTT3=
EXTT4=
EXTT5=
EXTT6=
EXTT7=
EXTT8=
PLAYORDER=
